<svg height="512" viewBox="0 0 60 60" width="512" xmlns="http://www.w3.org/2000/svg"><g id="023---Shooting" fill="none"><g id="Icons" transform="translate(1 4)"><path id="Rectangle-path" d="m26 20h6v4h-6z" fill="#7facfa"/><path id="Shape" d="m53.91 24v4c-1.0657734 13.59858-12.8351686 23.8328367-26.45 23-7.6257246-.4728643-14.6135363-4.4164079-18.96-10.7l4-1.29c5.3120347 6.7410794 14.1915376 9.5712974 22.4247271 7.1475697 8.2331894-2.4237277 14.1629374-9.6135674 14.9752729-18.1575697v-4c-.7338964-7.7428946-5.6871306-14.44608997-12.873191-17.42124668s-15.4279866-1.73499226-21.4203261 3.22312117c-5.99233948 4.95811341-8.75364397 12.82211711-7.1764829 20.43812551-.8-.32-1.27-.25-4.11-.25-1.50455411-9.0700779 2.09072173-18.2340713 9.3614461-23.86137642 7.2707244-5.62730514 17.0434749-6.80973109 25.4464695-3.07882268s14.0800738 11.7730197 14.7820844 20.9401991z" fill="#e8edfc"/><path id="Shape" d="m53.91 24v4c-1.0657898 13.5903216-12.8227255 23.8214802-26.43 23 12.4553595-.7453717 22.4540715-10.5605819 23.43-23v-4c-.9995886-12.4198525-10.9921199-22.20767129-23.43-22.95 13.5892987-.82255516 25.3385097 9.3796542 26.43 22.95z" fill="#cad9fc"/><path id="Shape" d="m5 30v11.41l-2.39.76c-.60917825.1950977-1.27492553.0870417-1.79112523-.2907137-.51619971-.3777553-.82056908-.9796314-.81887477-1.6192863v-8.26c0-1.1045695.8954305-2 2-2z" fill="#cad9fc"/><path id="Shape" d="m25.5 20h-4c-1.3807119 0-2.5-1.1192881-2.5-2.5s1.1192881-2.5 2.5-2.5h4c-1.3807119 0-2.5 1.1192881-2.5 2.5s1.1192881 2.5 2.5 2.5z" fill="#7facfa"/><path id="Shape" d="m36.5 20h-11c-1.3807119 0-2.5-1.1192881-2.5-2.5s1.1192881-2.5 2.5-2.5h11c-1.3807119 0-2.5 1.1192881-2.5 2.5s1.1192881 2.5 2.5 2.5z" fill="#e8edfc"/><circle id="Oval" cx="36.5" cy="17.5" fill="#7facfa" r="2.5"/><path id="Shape" d="m56 28h-17c-1.1045695 0-2-.8954305-2-2s.8954305-2 2-2h17c-1.1045695 0-2 .8954305-2 2s.8954305 2 2 2z" fill="#e8edfc"/><circle id="Oval" cx="56" cy="26" fill="#7facfa" r="2"/><path id="Shape" d="m39 23.9999983v5.0000017c0 1.1045695-.8954305 2-2 2h-15v2.08c-.0011314 1.7420422-1.1295731 3.2830325-2.79 3.81l-14.21 4.52v-11.41c2.94 0 2.78-.11 4.42.71 1.5222151.7620046 3.3599413.4771169 4.58-.71l4.79-4.79c.7538959-.7745247 1.7891455-1.2109888 2.87-1.21z" fill="#e8edfc"/></g><g id="Layer_3" fill="#fff" transform="translate(1 5)"><path id="Shape" d="m27.42 50h1.54 1.49-.07c-7.5969994-.4967405-14.550609-4.4376104-18.88-10.7h.06l-2.49.79c4.3738504 5.8270155 11.0787379 9.4480202 18.35 9.91z"/><path id="Shape" d="m0 31v8.26c-.00169431.6396549.30267506 1.241531.81887477 1.6192863.5161997.3777554 1.18194698.4858114 1.79112523.2907137l1.14-.36c-.47100216-.3770878-.7465986-.9466538-.75-1.55v-8.26c0-1.1045695.8954305-2 2-2h2.32c-1.12900402-6.9711517.74301531-14.0946187 5.1534394-19.61003029 4.4104242-5.5154116 10.9477881-8.90821441 17.9965606-9.33996971-.5 0-1 0-1.5 0s-1 0-1.53 0c-7.0434047.43984282-13.5728246 3.83607997-17.97672814 9.35048343-4.40390356 5.51440347-6.27201777 12.63324467-5.14327186 19.59951657h-2.32c-1.1045695 0-2 .8954305-2 2z"/></g><path id="Shape" d="m5.33 21.82 1.9.63c-.78259249 2.4416362-1.19714087 4.9862218-1.23 7.55h-2c.03601465-2.7774663.48423538-5.5341923 1.33-8.18z" fill="#fff"/><g fill="#428dff"><path id="Shape" d="m5.37 27c.55228475 0 1-.4477153 1-1s-.44771525-1-1-1-1 .4477153-1 1 .44771525 1 1 1z"/><path id="Shape" d="m57 27h-1.19c-1.517095-12.7101895-12.0214874-22.44823969-24.81-23v-3c0-.55228475-.4477153-1-1-1s-1 .44771525-1 1v3.05c-5.1198813.16804226-10.0709214 1.87181327-14.21 4.89-4.4200905 3.2010094-7.72793396 7.7047118-9.46 12.88-.08393147.2572285-.06004449.5374895.0662079.7768037s.344093.4172533.6037921.4931963c.51847332.1579596 1.06840776-.1258775 1.24-.64 1.60857629-4.7799014 4.6714835-8.9372035 8.76-11.89 3.7868578-2.7656442 8.3139703-4.336204 13-4.51v1.95c-11.3815438.50658672-20.49341328 9.6184562-21 21h-7c-.55228475 0-1 .4477153-1 1s.44771525 1 1 1h3c0 .67.08 1.34.15 2h-1.15c-1.65685425 0-3 1.3431458-3 3v8.26c0 1.6568542 1.34314575 3 3 3 .64 0 .48 0 6.13-1.8 4.682339 6.3446823 11.9910473 10.2215713 19.87 10.54v3c0 .5522847.4477153 1 1 1s1-.4477153 1-1v-3c12.7885126-.5517603 23.292905-10.2898105 24.81-23h1.19c1.6568542 0 3-1.3431458 3-3s-1.3431458-3-3-3zm-26-21c11.689064.53964742 21.3030472 9.3946319 22.8 21h-2c-1.4061428-10.5324486-10.1824771-18.52819554-20.8-18.95zm-2 4v3c0 .5522847.4477153 1 1 1s1-.4477153 1-1v-2.95c9.5027926.4304354 17.3659126 7.5386959 18.75 16.95h-15.75v-2h3.5c1.9329966 0 3.5-1.5670034 3.5-3.5s-1.5670034-3.5-3.5-3.5h-15c-1.9329966 0-3.5 1.5670034-3.5 3.5s1.5670034 3.5 3.5 3.5h3.5v2h-3.34c-1.3269886-.00237-2.6004927.5228605-3.54 1.46l-4.79 4.79c-.9106738.9144413-2.304121 1.1439976-3.46.57l-.54-.27c-.1481354-.8430854-.2416634-1.6948583-.28-2.55h2.95c.5522847 0 1-.4477153 1-1s-.4477153-1-1-1h-2.95c.5248892-10.240505 8.709495-18.4251108 18.95-18.95zm-2.5 13c-.8284271 0-1.5-.6715729-1.5-1.5s.6715729-1.5 1.5-1.5h7.85c-.4650277.9459373-.4650277 2.0540627 0 3zm5.5 2v2h-4v-2zm4-3.5c0-.8284271.6715729-1.5 1.5-1.5s1.5.6715729 1.5 1.5-.6715729 1.5-1.5 1.5-1.5-.6715729-1.5-1.5zm-12.65 1.5h-.85c-.8284271 0-1.5-.6715729-1.5-1.5s.6715729-1.5 1.5-1.5h.85c-.4696479.9448577-.4696479 2.0551423 0 3zm-18.35 21.68-1.7.54c-.31166038.0983996-.65173839.038293-.91078783-.1609758s-.40437692-.5125511-.38921217-.8390242v-8.22c0-.5522847.44771525-1 1-1h2zm1-13.68h2c0 .6666667.06 1.3333333.18 2-.29 0 .44 0-2 0-.06-.66-.11-1.33-.18-2zm1 13v-9c1.03969463-.1717136 2.10632557.0416126 3 .6 1.9257221.968248 4.2551892.5934375 5.78-.93l4.79-4.79c.5546983-.5554829 1.3050301-.8714121 2.09-.88h16.34v4c0 .5522847-.4477153 1-1 1h-17c-.5522847 0-1 .4477153-1 1s.4477153 1 1 1h1v1.08c-.0037605 1.3030893-.8482995 2.4547334-2.09 2.85zm18.45-5.21c.4588827.3012473 1.0748175.176275 1.38-.28l1.71-2.51h.46v2c0 1.1045695-.8954305 2-2 2h-3.94c.7824998-1.1776286 1.1160769-2.5971059.94-4h2.13l-1 1.45c-.1410213.2253123-.1865377.4974983-.1264947.7564336.0600429.2589352.2207043.4833119.4464947.6235664zm3.55 15.21c-7.0039415-.2952641-13.5286829-3.6380067-17.86-9.15l2.06-.65c3.9368099 4.7044638 9.6713413 7.535435 15.8 7.8zm1-8c-.5522847 0-1 .4477153-1 1v3c-5.2483238-.2516017-10.1825184-2.5748449-13.72-6.46l4.72-1.54h7c2.209139 0 4-1.790861 4-4v-2h7c1.6568542 0 3-1.3431458 3-3h8.75c-1.3623207 9.4310323-9.2310018 16.5653032-18.75 17v-3c0-.5522847-.4477153-1-1-1zm1 8v-2c10.6224945-.4399345 19.3881465-8.4585859 20.77-19h2c-1.4948778 11.5946783-11.0924767 20.4462188-22.77 21zm10-23v-2h13.18c-.2398017.6451023-.2398017 1.3548977 0 2zm16 0c-.5522847 0-1-.4477153-1-1s.4477153-1 1-1 1 .4477153 1 1-.4477153 1-1 1z"/></g></g></svg>